<svg width="25" height="24" viewBox="0 0 25 24" fill="none" xmlns="http://www.w3.org/2000/svg">
<path fill-rule="evenodd" clip-rule="evenodd" d="M21.5161 13.266C22.3453 14.01 23.2206 14.7099 23.9644 15.5289C24.293 15.8929 24.604 16.2684 24.842 16.6908C25.1792 17.2912 24.8738 17.9519 24.2879 17.9878L20.6458 17.9863C19.7064 18.0579 18.9571 17.7104 18.327 17.1203C17.8227 16.6483 17.3558 16.146 16.8709 15.6581C16.6721 15.4587 16.4641 15.2711 16.2155 15.1228C15.7183 14.8262 15.2868 14.917 15.0026 15.3935C14.7133 15.8781 14.6476 16.4148 14.6192 16.9549C14.5802 17.7429 14.321 17.9501 13.4595 17.9862C11.6184 18.066 9.87113 17.81 8.24797 16.9566C6.81694 16.2043 5.70723 15.1422 4.74135 13.9398C2.86077 11.5984 1.42061 9.02567 0.126258 6.38084C-0.165091 5.78495 0.0479794 5.46508 0.763497 5.45376C1.95165 5.43255 3.13963 5.43406 4.32918 5.45225C4.81208 5.45874 5.13176 5.71325 5.31822 6.13244C5.96104 7.58483 6.74761 8.96665 7.73493 10.2475C7.99786 10.5885 8.26596 10.9295 8.64775 11.1695C9.07011 11.4352 9.39169 11.3472 9.59038 10.9148C9.71647 10.6407 9.77166 10.3454 9.80008 10.0518C9.89422 9.04175 9.90662 8.03338 9.74152 7.02684C9.64016 6.39865 9.25509 5.99198 8.57292 5.87311C8.22481 5.8125 8.27664 5.69347 8.44519 5.5109C8.73794 5.19601 9.01327 5 9.56213 5H13.6782C14.3262 5.11752 14.4701 5.385 14.5588 5.98413L14.5624 10.1854C14.5553 10.4173 14.6885 11.1056 15.1431 11.2591C15.507 11.3684 15.7468 11.1009 15.9652 10.8889C16.9507 9.92776 17.654 8.79192 18.2824 7.61578C18.5613 7.09861 18.801 6.56153 19.0334 6.02489C19.2056 5.62668 19.4757 5.43074 19.9639 5.43942L23.9254 5.44267C24.0428 5.44267 24.1617 5.44425 24.2755 5.46214C24.943 5.56667 25.1259 5.83054 24.9198 6.42952C24.5949 7.36927 23.9628 8.15241 23.3448 8.93917C22.6842 9.77915 21.9776 10.5904 21.3225 11.4353C20.7205 12.2069 20.7683 12.5958 21.5161 13.266Z" fill="#0077FF"/>
</svg>
