<svg width="22" height="23" viewBox="0 0 22 23" fill="none" xmlns="http://www.w3.org/2000/svg">
<g clip-path="url(#clip0_10001_1794)">
<path d="M20.5373 11.785C20.4488 11.6039 20.4488 11.3962 20.5373 11.2151L21.3579 9.53657C21.8147 8.60196 21.4527 7.488 20.5338 7.00044L18.8834 6.12474C18.7053 6.0303 18.5833 5.86221 18.5484 5.66373L18.2256 3.82344C18.0459 2.79881 17.0981 2.11028 16.0683 2.25599L14.2183 2.51767C14.0187 2.54585 13.8212 2.48166 13.6764 2.34154L12.3336 1.04251C11.5859 0.319183 10.4146 0.31914 9.66691 1.04251L8.32406 2.34167C8.17917 2.48183 7.98173 2.5459 7.7821 2.5178L5.93218 2.25612C4.90201 2.11033 3.95455 2.79894 3.77481 3.82357L3.45203 5.66378C3.41719 5.86229 3.29511 6.03034 3.11709 6.12483L1.46667 7.00053C0.54775 7.48805 0.185783 8.60209 0.642624 9.5367L1.46311 11.2152C1.55162 11.3963 1.55162 11.604 1.46311 11.7851L0.642581 13.4636C0.18574 14.3982 0.547707 15.5122 1.46663 15.9998L3.11705 16.8755C3.29511 16.9699 3.41719 17.138 3.45203 17.3365L3.77481 19.1768C3.93844 20.1095 4.73825 20.7637 5.65748 20.7636C5.74801 20.7636 5.83988 20.7572 5.93222 20.7442L7.78214 20.4825C7.98164 20.4542 8.17921 20.5185 8.3241 20.6586L9.66691 21.9576C10.0408 22.3194 10.5204 22.5002 11.0002 22.5001C11.4799 22.5001 11.9598 22.3193 12.3335 21.9576L13.6764 20.6586C13.8213 20.5185 14.0188 20.4545 14.2183 20.4825L16.0683 20.7442C17.0986 20.8899 18.0459 20.2014 18.2256 19.1767L18.5485 17.3365C18.5833 17.138 18.7054 16.9699 18.8834 16.8755L20.5338 15.9998C21.4527 15.5122 21.8147 14.3982 21.3579 13.4636L20.5373 11.785ZM19.9391 14.8788L18.2887 15.7545C17.7625 16.0338 17.4016 16.5304 17.2987 17.1172L16.9759 18.9575C16.9151 19.3041 16.5946 19.537 16.246 19.4878L14.3961 19.2261C13.8061 19.1425 13.2223 19.3324 12.7942 19.7466L11.4513 21.0456C11.1984 21.2902 10.8021 21.2902 10.5491 21.0456L9.20629 19.7465C8.84441 19.3965 8.37133 19.2068 7.87745 19.2068C7.78695 19.2068 7.69573 19.2131 7.60438 19.2261L5.75446 19.4877C5.40616 19.537 5.0854 19.3041 5.02455 18.9574L4.70173 17.1171C4.59878 16.5303 4.23793 16.0337 3.71169 15.7545L2.06127 14.8788C1.75035 14.7138 1.62789 14.337 1.78245 14.0208L2.60298 12.3422C2.86457 11.807 2.86457 11.1931 2.60298 10.6579L1.78245 8.97936C1.62789 8.66315 1.75035 8.28627 2.06127 8.12132L3.71169 7.24562C4.23788 6.96637 4.59878 6.46974 4.70169 5.88296L5.02447 4.0427C5.08531 3.69603 5.40577 3.46315 5.75437 3.51239L7.60429 3.77407C8.19404 3.85755 8.77802 3.66776 9.2062 3.25359L10.5491 1.95456C10.802 1.7099 11.1983 1.7099 11.4513 1.95456L12.7941 3.25359C13.2223 3.6678 13.8062 3.85755 14.396 3.77407L16.2459 3.51239C16.5942 3.4631 16.915 3.69603 16.9758 4.0427L17.2986 5.883C17.4015 6.46978 17.7624 6.96645 18.2886 7.24562L19.939 8.12132C20.25 8.28627 20.3724 8.66315 20.2179 8.97936L19.3973 10.6579C19.1357 11.193 19.1357 11.807 19.3973 12.3422L20.2179 14.0207C20.3725 14.337 20.25 14.7139 19.9391 14.8788Z" fill="#FC993E"/>
<path d="M15.6368 6.86428C15.3891 6.61653 14.9873 6.61653 14.7396 6.86428L6.3655 15.2384C6.11775 15.4862 6.11775 15.8879 6.3655 16.1356C6.48938 16.2595 6.65176 16.3215 6.8141 16.3215C6.97643 16.3215 7.13885 16.2596 7.26269 16.1356L15.6368 7.76155C15.8846 7.51375 15.8846 7.11208 15.6368 6.86428Z" fill="#FC993E"/>
<path d="M8.46299 5.79004C7.18029 5.79004 6.13672 6.83362 6.13672 8.11631C6.13672 9.39901 7.18029 10.4426 8.46299 10.4426C9.74569 10.4426 10.7893 9.39901 10.7893 8.11631C10.7893 6.83362 9.74569 5.79004 8.46299 5.79004ZM8.46299 9.17368C7.87995 9.17368 7.40562 8.69935 7.40562 8.11627C7.40562 7.53323 7.87995 7.0589 8.46299 7.0589C9.04603 7.0589 9.5204 7.53323 9.5204 8.11627C9.52036 8.69935 9.04603 9.17368 8.46299 9.17368Z" fill="#FC993E"/>
<path d="M13.5372 12.5576C12.2545 12.5576 11.2109 13.6012 11.2109 14.8839C11.2109 16.1666 12.2545 17.2102 13.5372 17.2102C14.8199 17.2102 15.8635 16.1666 15.8635 14.8839C15.8635 13.6012 14.8199 12.5576 13.5372 12.5576ZM13.5372 15.9413C12.9542 15.9413 12.4798 15.4669 12.4798 14.8839C12.4798 14.3008 12.9541 13.8265 13.5372 13.8265C14.1202 13.8265 14.5946 14.3008 14.5946 14.8839C14.5946 15.4669 14.1202 15.9413 13.5372 15.9413Z" fill="#FC993E"/>
</g>
<defs>
<clipPath id="clip0_10001_1794">
<rect width="22" height="22" fill="white" transform="translate(0 0.5)"/>
</clipPath>
</defs>
</svg>
