<svg width="64" height="65" viewBox="0 0 64 65" fill="none" xmlns="http://www.w3.org/2000/svg">
<path d="M54 19.9755C54 33.2108 36.5039 53.8753 32.7172 58.1929C32.3284 58.6361 31.6716 58.6361 31.2828 58.1929C27.4961 53.8754 10 33.2108 10 19.9755C10 8.59022 20.6598 1 32 1C43.7333 1 54 8.59022 54 19.9755Z" stroke="#FC993E" stroke-width="2"/>
<path d="M42.5798 22.7142C42.5798 28.4615 37.8558 33.1428 32.0008 33.1428C26.1459 33.1428 21.4219 28.4615 21.4219 22.7142C21.4219 16.967 26.1459 12.2856 32.0008 12.2856C37.8558 12.2856 42.5798 16.967 42.5798 22.7142Z" stroke="#FC993E" stroke-width="2"/>
</svg>
