<svg width="16" height="17" viewBox="0 0 16 17" fill="none" xmlns="http://www.w3.org/2000/svg">
<g clip-path="url(#clip0_10001_3330)">
<path d="M12.1516 10.596L14.4269 12.8713C14.7434 13.1878 14.7434 13.701 14.4269 14.0176C12.7156 15.7289 10.0063 15.9214 8.07021 14.4693L6.96191 13.6381C5.21838 12.3304 3.66955 10.7816 2.3619 9.03809L1.53067 7.92979C0.0785838 5.99367 0.271123 3.28443 1.98243 1.57313C2.29896 1.2566 2.81215 1.2566 3.12868 1.57313L5.404 3.84845C5.79453 4.23897 5.79453 4.87214 5.40401 5.26266L4.57488 6.09178C4.43063 6.23603 4.39487 6.45641 4.4861 6.63887C5.54091 8.74849 7.25151 10.4591 9.36113 11.5139C9.54359 11.6051 9.76397 11.5694 9.90822 11.4251L10.7373 10.596C11.1279 10.2055 11.761 10.2055 12.1516 10.596Z" stroke="#FAFBFD"/>
</g>
<defs>
<clipPath id="clip0_10001_3330">
<rect width="16" height="17" fill="white"/>
</clipPath>
</defs>
</svg>
