<svg width="64" height="64" viewBox="0 0 64 64" fill="none" xmlns="http://www.w3.org/2000/svg">
<path d="M30.1332 49.0381C29.8006 49.0381 29.5312 49.3073 29.5312 49.6401V50.3526C29.5312 50.6852 29.8006 50.9546 30.1332 50.9546C30.4659 50.9546 30.7352 50.6854 30.7352 50.3526V49.6401C30.7352 49.3074 30.466 49.0381 30.1332 49.0381Z" fill="#FC993E"/>
<path d="M11.9903 30.8984H11.2778C10.9451 30.8984 10.6758 31.1677 10.6758 31.5004C10.6758 31.8331 10.9451 32.1024 11.2778 32.1024H11.9903C12.3229 32.1024 12.5922 31.8332 12.5922 31.5004C12.5922 31.1677 12.3231 30.8984 11.9903 30.8984Z" fill="#FC993E"/>
<path d="M16.8788 43.902L16.3756 44.4064C16.1404 44.6416 16.1404 45.0224 16.3756 45.2576C16.6117 45.4936 16.9933 45.4919 17.2274 45.2576L17.7307 44.7532C17.9658 44.518 17.9658 44.1372 17.7307 43.902C17.4956 43.6668 17.114 43.6668 16.8788 43.902Z" fill="#FC993E"/>
<path d="M43.3836 43.901C43.1484 43.6658 42.7669 43.6658 42.5318 43.901C42.2967 44.1362 42.2966 44.517 42.5318 44.7522L43.035 45.2566C43.2692 45.4908 43.6507 45.4926 43.8869 45.2566C44.1221 45.0214 44.1221 44.6406 43.8869 44.4054L43.3836 43.901Z" fill="#FC993E"/>
<path d="M30.1359 9.1709C17.8205 9.1709 7.80078 19.1906 7.80078 31.5053C7.80078 43.8142 17.8205 53.8292 30.1359 53.8292C42.4453 53.8292 52.4603 43.8142 52.4603 31.5053C52.4603 19.1906 42.4453 9.1709 30.1359 9.1709ZM30.1359 52.6253C18.4843 52.6253 9.00475 43.1512 9.00475 31.5054C9.00475 19.8538 18.4842 10.3749 30.1359 10.3749C41.7816 10.3749 51.2564 19.8537 51.2564 31.5054C51.2564 43.1511 41.7817 52.6253 30.1359 52.6253Z" fill="#FC993E"/>
<path d="M30.1332 13.9624C30.4659 13.9624 30.7352 13.6931 30.7352 13.3604V12.6479C30.7352 12.3152 30.4659 12.0459 30.1332 12.0459C29.8006 12.0459 29.5312 12.3152 29.5312 12.6479V13.3604C29.5312 13.6931 29.8006 13.9624 30.1332 13.9624Z" fill="#FC993E"/>
<path d="M48.27 32.1024H48.9824C49.3151 32.1024 49.5844 31.8332 49.5844 31.5004C49.5844 31.1677 49.3152 30.8984 48.9824 30.8984H48.27C47.9373 30.8984 47.668 31.1677 47.668 31.5004C47.668 31.8332 47.9373 32.1024 48.27 32.1024Z" fill="#FC993E"/>
<path d="M43.0351 17.7438L42.5319 18.2482C42.2967 18.4834 42.2967 18.8642 42.5319 19.0994C42.7679 19.3354 43.1495 19.3337 43.3837 19.0994L43.8869 18.595C44.1221 18.3598 44.1221 17.979 43.8869 17.7438C43.6518 17.5086 43.2703 17.5086 43.0351 17.7438Z" fill="#FC993E"/>
<path d="M16.8788 19.0994C17.113 19.3336 17.4945 19.3354 17.7307 19.0994C17.9658 18.8642 17.9658 18.4834 17.7307 18.2482L17.2274 17.7438C16.9922 17.5086 16.6107 17.5086 16.3756 17.7438C16.1404 17.979 16.1404 18.3598 16.3756 18.595L16.8788 19.0994Z" fill="#FC993E"/>
<path d="M60.1316 26.9709C59.8571 26.7874 59.4832 26.8568 59.2957 27.132L57.5883 29.6488C56.629 15.3316 44.6872 3.97461 30.1373 3.97461C14.9561 3.97461 2.60547 16.3258 2.60547 31.507C2.60547 46.6812 14.9561 59.0265 30.1373 59.0265C38.8266 59.0265 47.1032 54.8502 52.2777 47.8545C52.4758 47.5876 52.4193 47.2114 52.1519 47.0127C51.8844 46.8175 51.5082 46.8716 51.3101 47.1397C46.3613 53.8285 38.4462 57.8225 30.1373 57.8225C15.6198 57.8225 3.80944 46.0168 3.80944 31.507C3.80944 16.9889 15.6198 5.17858 30.1373 5.17858C43.9427 5.17858 55.2912 15.8705 56.363 29.4117L54.8172 27.1321C54.6303 26.8558 54.2558 26.7864 53.9808 26.971C53.7056 27.1579 53.6339 27.5319 53.8202 27.8069L56.5574 31.8432C56.7057 32.0624 57.0262 32.1869 57.3191 32.0422C57.6195 31.8959 57.6983 31.539 60.2916 27.8069C60.4785 27.5317 60.4067 27.1578 60.1316 26.9709Z" fill="#FC993E"/>
<path d="M30.7376 27.7657V15.6762C30.7376 15.3511 30.4728 15.0742 30.1356 15.0742C29.8107 15.0742 29.5336 15.3511 29.5336 15.6762V27.7649C27.9138 28.0223 26.6399 29.2916 26.3814 30.9063H16.1215C15.7843 30.9063 15.5195 31.1713 15.5195 31.5083C15.5195 31.8333 15.7843 32.1102 16.1215 32.1102H26.3821C26.6753 33.9231 28.2386 35.3151 30.1325 35.3151C32.2342 35.3151 33.9442 33.6056 33.9442 31.5034C33.9444 29.615 32.5508 28.057 30.7376 27.7657ZM30.1325 34.1113C28.6946 34.1113 27.5248 32.9414 27.5248 31.5035C27.5248 30.0727 28.6946 28.9087 30.1325 28.9087C31.5704 28.9087 32.7403 30.0727 32.7403 31.5035C32.7404 32.9414 31.5705 34.1113 30.1325 34.1113Z" fill="#FC993E"/>
</svg>
