<svg width="24" height="24" viewBox="0 0 24 24" fill="none" xmlns="http://www.w3.org/2000/svg">
<g clip-path="url(#clip0_10001_5413)">
<path d="M2.67962 1.98705L2.95956 1.70711C3.35008 1.31658 3.98325 1.31658 4.37377 1.70711L7.62623 4.95956C8.01675 5.35008 8.01675 5.98325 7.62623 6.37377L6.31704 7.68296C6.12771 7.87229 6.08077 8.16154 6.20051 8.40102C7.58495 11.1699 9.8301 13.4151 12.599 14.7995C12.8385 14.9192 13.1277 14.8723 13.317 14.683L14.6262 13.3738C15.0168 12.9832 15.6499 12.9833 16.0404 13.3738L19.2929 16.6262C19.6834 17.0168 19.6834 17.6499 19.2929 18.0404L19.013 18.3204C16.9016 20.4317 13.559 20.6693 11.1703 18.8777L8.62857 16.9714C6.88504 15.6638 5.33622 14.115 4.02857 12.3714L2.12226 9.82968C0.330722 7.44096 0.568269 4.0984 2.67962 1.98705Z" stroke="#FAFBFD"/>
</g>
<defs>
<clipPath id="clip0_10001_5413">
<rect width="24" height="24" fill="white"/>
</clipPath>
</defs>
</svg>
