<svg width="30" height="30" viewBox="0 0 30 30" fill="none" xmlns="http://www.w3.org/2000/svg">
<circle opacity="0.9" cx="15" cy="15" r="15" fill="#FAFBFD"/>
<g clip-path="url(#clip0_8245_22999)">
<path d="M22.5692 10.3908C22.2505 9.28486 21.6194 8.41127 20.695 7.79325C19.5284 7.01105 18.1864 6.73535 17.0278 6.56651C15.4245 6.33418 13.9725 6.30165 12.5876 6.46583C11.2903 6.62073 10.3133 6.867 9.42239 7.26507C7.67564 8.04573 6.62695 9.30809 6.30661 11.0165C6.15042 11.8468 6.04523 12.5964 5.98467 13.312C5.84442 14.9663 5.97192 16.43 6.37355 17.7868C6.76561 19.1096 7.44933 20.0544 8.46455 20.6756C8.72273 20.8336 9.05423 20.9482 9.37458 21.0581C9.55627 21.1201 9.73317 21.1805 9.8782 21.2471C10.0121 21.3075 10.0121 21.3184 10.0105 21.4268C9.99933 22.367 10.0105 24.2102 10.0105 24.2102L10.0137 24.6036H10.7404L10.8584 24.4921C10.9365 24.4208 12.7374 22.7294 13.3797 22.0479L13.4673 21.9534C13.5773 21.8295 13.5773 21.8295 13.6905 21.828C14.5575 21.8109 15.4436 21.7784 16.3233 21.7319C17.3895 21.6762 18.6247 21.5755 19.7881 21.1046C20.8528 20.6725 21.6305 19.9863 22.0975 19.0662C22.5852 18.1059 22.8736 17.0666 22.982 15.8879C23.1733 13.8154 23.0378 12.0171 22.5692 10.3908ZM18.7347 18.4498C18.4669 18.8726 18.0685 19.1669 17.5983 19.3574C17.2541 19.4968 16.9035 19.4674 16.564 19.328C13.7223 18.1586 11.4927 16.3169 10.02 13.6683C9.71564 13.1231 9.50526 12.5283 9.26302 11.9521C9.21361 11.8344 9.2168 11.695 9.19448 11.5649C9.2152 10.634 9.94992 10.1089 10.6926 9.95089C10.9763 9.88893 11.2281 9.98651 11.4385 10.1832C12.0218 10.7222 12.4824 11.3496 12.8298 12.0528C12.9812 12.361 12.9127 12.6336 12.6545 12.8628C12.6003 12.9109 12.5445 12.9542 12.4856 12.9976C11.8959 13.4282 11.8098 13.755 12.1238 14.404C12.6593 15.5084 13.5486 16.2503 14.6977 16.7103C15.0005 16.8312 15.2858 16.7708 15.5169 16.5322C15.5488 16.5012 15.5838 16.4703 15.6061 16.4331C16.0588 15.6989 16.717 15.7717 17.3242 16.1899C17.7226 16.4656 18.1099 16.7568 18.5036 17.0372C19.1044 17.4662 19.0996 17.8689 18.7347 18.4498ZM14.9655 11.1219C14.8316 11.1219 14.6977 11.1327 14.5654 11.1544C14.3423 11.19 14.1335 11.0444 14.0953 10.8276C14.0586 10.6123 14.2084 10.4078 14.4315 10.3722C14.6069 10.3428 14.787 10.3288 14.9655 10.3288C16.7329 10.3288 18.1705 11.7259 18.1705 13.4437C18.1705 13.6187 18.1561 13.7937 18.1259 13.9626C18.0924 14.1562 17.9203 14.294 17.7242 14.294C17.7019 14.294 17.6796 14.2925 17.6557 14.2878C17.4342 14.2522 17.2844 14.0478 17.321 13.8325C17.3433 13.7055 17.3545 13.5753 17.3545 13.4437C17.3545 12.1643 16.2819 11.1219 14.9655 11.1219ZM16.9465 13.501C16.9465 13.7194 16.7632 13.8975 16.5385 13.8975C16.3138 13.8975 16.1305 13.7194 16.1305 13.501C16.1305 12.8458 15.5806 12.3114 14.9065 12.3114C14.6818 12.3114 14.4985 12.1333 14.4985 11.9149C14.4985 11.6965 14.6818 11.5184 14.9065 11.5184C16.0317 11.5184 16.9465 12.4075 16.9465 13.501ZM19.2765 14.3823C19.2335 14.5666 19.0646 14.6906 18.8781 14.6906C18.8478 14.6906 18.8175 14.6875 18.7873 14.6813C18.5673 14.6317 18.4303 14.4195 18.4797 14.2058C18.5386 13.9533 18.5689 13.6915 18.5689 13.4282C18.5689 11.5014 16.9545 9.9323 14.9718 9.9323C14.7009 9.9323 14.4315 9.96173 14.1718 10.019C13.9518 10.0686 13.7335 9.93385 13.6841 9.7201C13.6331 9.50635 13.7717 9.29415 13.9917 9.24613C14.3104 9.17488 14.6403 9.13926 14.9718 9.13926C17.4055 9.13926 19.3849 11.063 19.3849 13.4282C19.3849 13.7504 19.3483 14.071 19.2765 14.3823Z" fill="#7360F2"/>
</g>
<defs>
<clipPath id="clip0_8245_22999">
<rect width="17" height="19" fill="white" transform="translate(6 6)"/>
</clipPath>
</defs>
</svg>
