<svg width="20" height="18" viewBox="0 0 20 18" fill="none" xmlns="http://www.w3.org/2000/svg">
<path fill-rule="evenodd" clip-rule="evenodd" d="M17.2129 10.3585C17.8763 10.9307 18.5765 11.4692 19.1715 12.0992C19.4344 12.3791 19.6832 12.668 19.8736 12.9929C20.1433 13.4548 19.899 13.963 19.4303 13.9906L16.5166 13.9894C15.7652 14.0445 15.1657 13.7772 14.6616 13.3233C14.2582 12.9602 13.8846 12.5739 13.4967 12.1986C13.3377 12.0452 13.1713 11.9008 12.9724 11.7868C12.5747 11.5586 12.2294 11.6285 12.0021 11.995C11.7706 12.3678 11.7181 12.7806 11.6954 13.1961C11.6642 13.8023 11.4568 13.9616 10.7676 13.9894C9.29473 14.0507 7.89691 13.8539 6.59838 13.1974C5.45355 12.6187 4.56579 11.8017 3.79308 10.8767C2.28861 9.07571 1.13649 7.09667 0.101007 5.06218C-0.132073 4.60381 0.0383836 4.35776 0.610798 4.34905C1.56132 4.33273 2.51171 4.33389 3.46334 4.34789C3.84966 4.35288 4.10541 4.54865 4.25458 4.87111C4.76884 5.98833 5.39809 7.05127 6.18794 8.03652C6.39829 8.29883 6.61277 8.56114 6.9182 8.74576C7.25609 8.95019 7.51335 8.88243 7.67231 8.54987C7.77317 8.33901 7.81733 8.11188 7.84007 7.88603C7.91537 7.10903 7.9253 6.33337 7.79321 5.5591C7.71213 5.07588 7.40407 4.76306 6.85834 4.67162C6.57985 4.625 6.62131 4.53344 6.75615 4.393C6.99035 4.15078 7.21062 4 7.6497 4H10.9426C11.461 4.0904 11.5761 4.29616 11.6471 4.75703L11.6499 7.98874C11.6442 8.16715 11.7508 8.69659 12.1145 8.81468C12.4056 8.89875 12.5975 8.69299 12.7721 8.5299C13.5605 7.79058 14.1232 6.91686 14.6259 6.01213C14.849 5.61432 15.0408 5.20117 15.2267 4.78838C15.3644 4.48206 15.5806 4.33134 15.9711 4.33802L19.1403 4.34051C19.2343 4.34051 19.3294 4.34173 19.4204 4.35549C19.9544 4.4359 20.1007 4.63888 19.9358 5.09963C19.6759 5.82252 19.1703 6.42493 18.6759 7.03013C18.1473 7.67627 17.5821 8.30028 17.058 8.95025C16.5764 9.54378 16.6147 9.84295 17.2129 10.3585Z" fill="#0077FF"/>
</svg>
