<svg width="30" height="30" viewBox="0 0 30 30" fill="none" xmlns="http://www.w3.org/2000/svg">
<circle opacity="0.9" cx="15" cy="15" r="15" fill="#FAFBFD"/>
<g clip-path="url(#clip0_8245_22998)">
<path d="M14.9988 6.71973C10.4333 6.71973 6.7188 10.4342 6.7188 14.9997C6.7188 16.4253 7.08708 17.8272 7.78548 19.0641L6.73212 22.8225C6.69756 22.946 6.73104 23.0785 6.82032 23.1703C6.88908 23.2412 6.98268 23.2797 7.0788 23.2797C7.1076 23.2797 7.13676 23.2761 7.1652 23.2693L11.0878 22.2976C12.2855 22.9406 13.6344 23.2797 14.9988 23.2797C19.5643 23.2797 23.2788 19.5652 23.2788 14.9997C23.2788 10.4342 19.5643 6.71973 14.9988 6.71973ZM19.164 17.9215C18.9869 18.4118 18.1373 18.8593 17.729 18.9194C17.3626 18.973 16.8989 18.9961 16.3898 18.8362C16.0813 18.739 15.6853 18.6102 15.1781 18.3938C13.0458 17.4844 11.6533 15.3644 11.5468 15.2244C11.4406 15.0843 10.6788 14.0864 10.6788 13.0536C10.6788 12.0207 11.2278 11.5128 11.4229 11.3025C11.618 11.0923 11.8481 11.0397 11.9899 11.0397C12.1318 11.0397 12.2732 11.0415 12.3974 11.0473C12.5281 11.0538 12.7034 10.998 12.8759 11.4076C13.053 11.8281 13.4782 12.861 13.5307 12.9664C13.584 13.0716 13.6193 13.1943 13.5487 13.3344C13.4782 13.4744 13.4429 13.5619 13.3363 13.6846C13.2298 13.8074 13.1131 13.9582 13.0174 14.0526C12.9108 14.1573 12.8003 14.2707 12.9241 14.481C13.048 14.6912 13.4746 15.3784 14.1067 15.935C14.9185 16.65 15.6036 16.8717 15.816 16.9768C16.0284 17.082 16.1526 17.0643 16.2764 16.9243C16.4003 16.7839 16.8078 16.3112 16.9493 16.1013C17.0908 15.8914 17.2326 15.926 17.4277 15.9962C17.6228 16.066 18.6679 16.5736 18.8803 16.6788C19.0927 16.7839 19.2346 16.8364 19.2878 16.9239C19.3411 17.011 19.3411 17.4315 19.164 17.9215Z" fill="#25D366"/>
</g>
<defs>
<clipPath id="clip0_8245_22998">
<rect width="18" height="18" fill="white" transform="translate(6 6)"/>
</clipPath>
</defs>
</svg>
